<svg width="1728" height="402" viewBox="0 0 1728 402" fill="none" xmlns="http://www.w3.org/2000/svg">
<path d="M573.682 92.0669C561.192 92.0669 550.935 87.777 542.911 79.1973C534.97 70.5351 531 59.563 531 46.2809C531 32.9164 534.888 21.8618 542.663 13.1171C550.438 4.37235 560.737 0 573.558 0C584.146 0 592.624 2.80491 598.993 8.41472C605.445 13.942 609.167 21.078 610.16 29.8227H592.293C591.466 25.2854 589.398 21.6968 586.089 19.0569C582.863 16.4169 578.686 15.097 573.558 15.097C565.7 15.097 559.703 17.9844 555.567 23.7592C551.431 29.534 549.363 37.0412 549.363 46.2809C549.363 55.4381 551.555 62.9041 555.939 68.6789C560.406 74.4537 566.32 77.3411 573.682 77.3411C578.893 77.3411 583.236 75.9387 586.71 73.1338C590.184 70.2464 592.21 66.4515 592.789 61.7492H610.408C609.912 70.0814 606.644 77.0524 600.606 82.6622C593.906 88.932 584.931 92.0669 573.682 92.0669Z" fill="white"/>
<path d="M673.001 82.5385C666.797 88.8907 658.815 92.0669 649.055 92.0669C639.294 92.0669 631.312 88.8907 625.108 82.5385C618.904 76.1037 615.802 68.1014 615.802 58.5318C615.802 48.9621 618.904 41.0011 625.108 34.6488C631.312 28.214 639.294 24.9967 649.055 24.9967C658.815 24.9967 666.797 28.214 673.001 34.6488C679.205 41.0011 682.307 48.9621 682.307 58.5318C682.307 68.1014 679.205 76.1037 673.001 82.5385ZM649.055 79.1973C654.1 79.1973 658.029 77.3411 660.842 73.6288C663.737 69.8339 665.184 64.8016 665.184 58.5318C665.184 52.262 663.737 47.2297 660.842 43.4348C658.029 39.6399 654.1 37.7425 649.055 37.7425C643.926 37.7425 639.956 39.6399 637.143 43.4348C634.331 47.1472 632.925 52.1795 632.925 58.5318C632.925 64.8016 634.331 69.8339 637.143 73.6288C639.956 77.3411 643.926 79.1973 649.055 79.1973Z" fill="white"/>
<path d="M706.653 26.7291V35.3913H707.025C711.409 28.4615 717.695 24.9967 725.884 24.9967C732.419 24.9967 737.713 27.2241 741.766 31.6789C745.819 36.0513 747.846 41.7436 747.846 48.7559V90.2107H730.971V51.2308C730.971 47.7659 729.979 44.961 727.993 42.8161C726.091 40.6711 723.403 39.5987 719.929 39.5987C716.206 39.5987 713.104 40.9599 710.623 43.6823C708.224 46.4047 707.025 49.9108 707.025 54.2007V90.2107H690.151V26.7291H706.653Z" fill="white"/>
<path d="M774.749 26.7291V35.3913H775.121C779.505 28.4615 785.791 24.9967 793.98 24.9967C800.515 24.9967 805.809 27.2241 809.862 31.6789C813.915 36.0513 815.941 41.7436 815.941 48.7559V90.2107H799.067V51.2308C799.067 47.7659 798.075 44.961 796.089 42.8161C794.187 40.6711 791.499 39.5987 788.025 39.5987C784.302 39.5987 781.2 40.9599 778.719 43.6823C776.32 46.4047 775.121 49.9108 775.121 54.2007V90.2107H758.247V26.7291H774.749Z" fill="white"/>
<path d="M856.245 92.0669C845.988 92.0669 837.923 88.932 832.05 82.6622C826.177 76.3099 823.241 68.2252 823.241 58.408C823.241 48.9208 826.177 41.0011 832.05 34.6488C837.923 28.214 845.45 24.9967 854.632 24.9967C864.64 24.9967 872.374 28.4615 877.834 35.3913C883.293 42.3211 886.023 51.602 886.023 63.2341H839.867C840.528 68.2664 842.224 72.1851 844.954 74.99C847.683 77.7124 851.406 79.0736 856.12 79.0736C862.324 79.0736 866.419 76.4749 868.404 71.2776H885.03C883.789 77.2174 880.646 82.1672 875.6 86.1271C870.555 90.087 864.103 92.0669 856.245 92.0669ZM854.88 37.99C846.691 37.99 841.769 42.5273 840.115 51.602H868.404C868.156 47.5596 866.791 44.301 864.309 41.8261C861.828 39.2687 858.685 37.99 854.88 37.99Z" fill="white"/>
<path d="M923.362 92.0669C913.519 92.0669 905.62 88.8907 899.664 82.5385C893.708 76.1862 890.731 68.1839 890.731 58.5318C890.731 48.8796 893.626 40.8774 899.416 34.5251C905.289 28.1728 912.981 24.9967 922.494 24.9967C930.517 24.9967 937.052 27.1003 942.098 31.3077C947.143 35.5151 950.245 41.1661 951.403 48.2609H934.901C934.322 45.3735 932.999 43.0223 930.931 41.2074C928.863 39.3924 926.299 38.485 923.238 38.485C918.275 38.485 914.47 40.2586 911.823 43.806C909.176 47.3534 907.853 52.262 907.853 58.5318C907.853 64.7191 909.135 69.6276 911.699 73.2575C914.264 76.8049 918.027 78.5786 922.99 78.5786C930.352 78.5786 934.612 74.99 935.77 67.8127H952.024C951.445 74.825 948.591 80.641 943.463 85.2609C938.334 89.7982 931.634 92.0669 923.362 92.0669Z" fill="white"/>
<path d="M955.662 37.8662V26.7291H964.471V6.92977H980.973V26.7291H991.892V37.8662H980.973V71.5251C980.973 75.7324 983.082 77.8361 987.301 77.8361L992.264 77.7124V90.087C989.7 90.252 986.184 90.3344 981.717 90.3344C976.837 90.3344 972.743 89.1795 969.434 86.8696C966.125 84.4771 964.471 80.5585 964.471 75.1137V37.8662H955.662Z" fill="white"/>
<path d="M1029.88 92.0669C1019.62 92.0669 1011.56 88.932 1005.68 82.6622C999.809 76.3099 996.873 68.2252 996.873 58.408C996.873 48.9208 999.809 41.0011 1005.68 34.6488C1011.56 28.214 1019.08 24.9967 1028.26 24.9967C1038.27 24.9967 1046.01 28.4615 1051.47 35.3913C1056.93 42.3211 1059.66 51.602 1059.66 63.2341H1013.5C1014.16 68.2664 1015.86 72.1851 1018.59 74.99C1021.32 77.7124 1025.04 79.0736 1029.75 79.0736C1035.96 79.0736 1040.05 76.4749 1042.04 71.2776H1058.66C1057.42 77.2174 1054.28 82.1672 1049.23 86.1271C1044.19 90.087 1037.74 92.0669 1029.88 92.0669ZM1028.51 37.99C1020.32 37.99 1015.4 42.5273 1013.75 51.602H1042.04C1041.79 47.5596 1040.42 44.301 1037.94 41.8261C1035.46 39.2687 1032.32 37.99 1028.51 37.99Z" fill="white"/>
<path d="M1091.29 92.0669C1083.26 92.0669 1076.77 89.0557 1071.81 83.0334C1066.84 76.9286 1064.36 68.7614 1064.36 58.5318C1064.36 48.6321 1066.89 40.5886 1071.93 34.4013C1077.06 28.1316 1083.59 24.9967 1091.54 24.9967C1099.48 24.9967 1105.47 28.1316 1109.53 34.4013H1109.9V1.73244H1126.77V90.2107H1110.52V81.9197H1110.27C1106.14 88.6845 1099.81 92.0669 1091.29 92.0669ZM1095.01 77.9599C1099.97 77.9599 1103.74 76.2687 1106.3 72.8863C1108.95 69.5039 1110.27 64.8428 1110.27 58.903C1110.27 45.3735 1105.35 38.6087 1095.51 38.6087C1090.96 38.6087 1087.48 40.4236 1085.08 44.0535C1082.68 47.6834 1081.49 52.5095 1081.49 58.5318C1081.49 64.7191 1082.64 69.5039 1084.96 72.8863C1087.36 76.2687 1090.71 77.9599 1095.01 77.9599Z" fill="white"/>
<path d="M1194.07 92.0669C1185.47 92.0669 1179.14 88.8083 1175.08 82.291H1174.84V90.2107H1158.58V1.73244H1175.46V34.4013H1175.83C1179.88 28.1316 1185.8 24.9967 1193.57 24.9967C1201.6 24.9967 1208.17 28.1316 1213.3 34.4013C1218.43 40.5886 1220.99 48.6321 1220.99 58.5318C1220.99 68.7614 1218.51 76.9286 1213.55 83.0334C1208.58 89.0557 1202.09 92.0669 1194.07 92.0669ZM1190.35 77.9599C1194.65 77.9599 1197.96 76.2687 1200.27 72.8863C1202.67 69.5039 1203.87 64.7191 1203.87 58.5318C1203.87 52.427 1202.63 47.6009 1200.15 44.0535C1197.75 40.4236 1194.27 38.6087 1189.73 38.6087C1179.96 38.6087 1175.08 45.3735 1175.08 58.903C1175.08 64.7603 1176.45 69.4214 1179.18 72.8863C1181.91 76.2687 1185.63 77.9599 1190.35 77.9599Z" fill="white"/>
<path d="M1228.41 111V97.7592H1234.36C1240.65 97.7592 1243.79 94.8718 1243.79 89.097C1243.79 86.2921 1242.18 80.5585 1238.95 71.8963L1221.83 26.7291H1239.57L1249 55.3144L1253.1 69.1739H1253.35C1254.5 63.8116 1255.74 59.1917 1257.07 55.3144L1266 26.7291H1283L1260.79 91.8194C1258.31 99.0791 1255.5 104.07 1252.35 106.793C1249.29 109.598 1244.62 111 1238.33 111H1228.41Z" fill="white"/>
<path d="M220.381 0H302.184C313.345 0 323.33 6.48058 327.226 16.2526L399.029 196.351C399.583 197.74 399.589 199.268 399.047 200.662L398.645 201.697L398.641 201.707L327.14 385.559C323.302 395.429 313.264 402 302.024 402H220.233C215.633 402 212.41 397.758 213.926 393.701L287.652 196.351L214.106 8.38563C212.513 4.31281 215.74 0 220.381 0Z" fill="#D631B9"/>
<path d="M6.8405 0H88.6443C99.8046 0 109.79 6.48058 113.686 16.2526L185.488 196.351C186.042 197.74 186.049 199.268 185.507 200.662L185.104 201.697L185.1 201.707L113.6 385.559C109.761 395.429 99.7235 402 88.4843 402H6.69292C2.09333 402 -1.13034 397.758 0.38554 393.701L74.112 196.351L0.566072 8.38563C-1.02752 4.31281 2.19949 0 6.8405 0Z" fill="#D631B9"/>
<path d="M275.89 157.961H160.411V245.084H275.89L294.76 200.278L275.89 157.961Z" fill="#D631B9"/>
<path d="M267.606 0H349.41C360.57 0 370.556 6.48058 374.451 16.2526L446.254 196.351C446.808 197.74 446.815 199.268 446.273 200.662L445.871 201.697L445.867 201.707L374.366 385.559C370.527 395.429 360.489 402 349.25 402H267.459C262.859 402 259.635 397.758 261.151 393.701L334.878 196.351L261.332 8.38563C259.738 4.31281 262.965 0 267.606 0Z" fill="white"/>
<path d="M54.0661 0H135.87C147.03 0 157.015 6.48058 160.911 16.2526L232.714 196.351C233.268 197.74 233.274 199.268 232.732 200.662L232.33 201.697L232.326 201.707L160.826 385.559C156.987 395.429 146.949 402 135.71 402H53.9185C49.3189 402 46.0953 397.758 47.6111 393.701L121.338 196.351L47.7917 8.38563C46.1981 4.31281 49.4251 0 54.0661 0Z" fill="white"/>
<path d="M323.115 157.961H207.636V245.084H323.115L341.984 200.278L323.115 157.961Z" fill="white"/>
<path d="M220.381 0H302.184C313.345 0 323.33 6.48058 327.226 16.2526L399.029 196.351C399.583 197.74 399.589 199.268 399.047 200.662L398.645 201.697L398.641 201.707L327.14 385.559C323.302 395.429 313.264 402 302.024 402H220.233C215.633 402 212.41 397.758 213.926 393.701L287.652 196.351L214.106 8.38563C212.513 4.31281 215.74 0 220.381 0Z" fill="#D631B9"/>
<path d="M6.8405 0H88.6443C99.8046 0 109.79 6.48058 113.686 16.2526L185.488 196.351C186.042 197.74 186.049 199.268 185.507 200.662L185.104 201.697L185.1 201.707L113.6 385.559C109.761 395.429 99.7235 402 88.4843 402H6.69292C2.09333 402 -1.13034 397.758 0.38554 393.701L74.112 196.351L0.566072 8.38563C-1.02752 4.31281 2.19949 0 6.8405 0Z" fill="#D631B9"/>
<path d="M275.89 157.961H160.411V245.084H275.89L294.76 200.278L275.89 157.961Z" fill="#D631B9"/>
<path d="M267.606 0H349.41C360.57 0 370.556 6.48058 374.451 16.2526L446.254 196.351C446.808 197.74 446.815 199.268 446.273 200.662L445.871 201.697L445.867 201.707L374.366 385.559C370.527 395.429 360.489 402 349.25 402H267.459C262.859 402 259.635 397.758 261.151 393.701L334.878 196.351L261.332 8.38563C259.738 4.31281 262.965 0 267.606 0Z" fill="white"/>
<path d="M54.0661 0H135.87C147.03 0 157.015 6.48058 160.911 16.2526L232.714 196.351C233.268 197.74 233.274 199.268 232.732 200.662L232.33 201.697L232.326 201.707L160.826 385.559C156.987 395.429 146.949 402 135.71 402H53.9185C49.3189 402 46.0953 397.758 47.6111 393.701L121.338 196.351L47.7917 8.38563C46.1981 4.31281 49.4251 0 54.0661 0Z" fill="white"/>
<path d="M323.115 157.961H207.636V245.084H323.115L341.984 200.278L323.115 157.961Z" fill="white"/>
<path d="M531 357.669V169H569.323V242.884H643.589V169H681.912V357.669H643.589V274.549H569.323V357.669H531Z" fill="#D631B9"/>
<path d="M710.895 402V373.766H723.581C736.972 373.766 743.668 367.609 743.668 355.294C743.668 349.313 740.232 337.087 733.36 318.616L696.888 222.302H734.682L754.768 283.257L763.49 312.811H764.018C766.485 301.376 769.128 291.525 771.947 283.257L790.976 222.302H827.185L779.876 361.1C774.59 376.58 768.599 387.223 761.904 393.028C755.385 399.009 745.43 402 732.039 402H710.895Z" fill="#D631B9"/>
<path d="M839.361 402V222.302H873.983V239.19H874.776C884.819 225.469 898.122 218.608 914.685 218.608C932.48 218.608 946.752 225.205 957.5 238.399C968.248 251.592 973.622 268.832 973.622 290.118C973.622 311.931 968.248 329.347 957.5 342.365C946.752 355.206 932.568 361.627 914.949 361.627C897.329 361.627 884.291 355.206 875.833 342.365H875.305V402H839.361ZM907.284 331.81C916.446 331.81 923.67 328.203 928.956 320.991C934.418 313.778 937.149 303.839 937.149 291.173C937.149 277.628 934.595 266.985 929.485 259.245C924.375 251.504 916.535 247.634 905.963 247.634C895.215 247.634 887.286 251.68 882.176 259.772C877.067 267.689 874.512 278.156 874.512 291.173C874.512 303.663 877.331 313.602 882.969 320.991C888.608 328.203 896.713 331.81 907.284 331.81Z" fill="#D631B9"/>
<path d="M1054.04 361.627C1032.2 361.627 1015.02 354.943 1002.51 341.573C989.997 328.028 983.742 310.788 983.742 289.854C983.742 269.624 989.997 252.736 1002.51 239.19C1015.02 225.469 1031.05 218.608 1050.61 218.608C1071.93 218.608 1088.4 225.997 1100.03 240.773C1111.66 255.55 1117.47 275.341 1117.47 300.145H1019.16C1020.57 310.876 1024.18 319.232 1029.99 325.213C1035.81 331.018 1043.74 333.921 1053.78 333.921C1066.99 333.921 1075.72 328.379 1079.94 317.297H1115.36C1112.72 329.963 1106.02 340.518 1095.27 348.961C1084.53 357.405 1070.78 361.627 1054.04 361.627ZM1051.14 246.315C1033.69 246.315 1023.21 255.99 1019.69 275.341H1079.94C1079.42 266.721 1076.51 259.772 1071.22 254.495C1065.94 249.042 1059.24 246.315 1051.14 246.315Z" fill="#D631B9"/>
<path d="M1168.73 222.302V243.94H1169.53C1173.75 236.024 1178.42 230.219 1183.53 226.524C1188.64 222.654 1195.07 220.719 1202.83 220.719C1206.53 220.719 1209.35 221.071 1211.28 221.775V253.176H1210.49C1198.33 251.944 1188.55 254.583 1181.15 261.092C1173.75 267.601 1170.05 277.804 1170.05 291.701V357.669H1134.11V222.302H1168.73Z" fill="#D631B9"/>
<path d="M1227.3 357.669V169H1263.24V357.669H1227.3Z" fill="#D631B9"/>
<path d="M1372.27 357.669C1370.51 355.382 1369.1 350.369 1368.04 342.629H1367.51C1363.64 348.434 1358.71 352.92 1352.71 356.086C1346.72 359.253 1338.35 360.836 1327.61 360.836C1313.33 360.836 1301.88 357.23 1293.25 350.017C1284.61 342.804 1280.3 332.601 1280.3 319.408C1280.3 305.686 1285.06 295.659 1294.57 289.326C1304.08 282.817 1317.48 278.331 1334.74 275.869C1347.43 274.109 1356.06 272.35 1360.64 270.591C1365.22 268.656 1367.51 265.314 1367.51 260.564C1367.51 255.638 1365.58 251.768 1361.7 248.954C1357.82 245.963 1352.19 244.468 1344.79 244.468C1328.4 244.468 1319.68 250.801 1318.62 263.467H1286.64C1287.17 250.625 1292.37 239.982 1302.23 231.538C1312.1 223.094 1326.37 218.872 1345.05 218.872C1383.11 218.872 1402.14 235.496 1402.14 268.744V337.615C1402.14 347.818 1403.72 354.063 1406.89 356.35V357.669H1372.27ZM1336.33 335.768C1346.2 335.768 1353.95 333.217 1359.59 328.116C1365.4 323.014 1368.31 316.945 1368.31 309.908V289.59C1364.43 291.877 1356.06 294.516 1343.2 297.506C1332.98 299.793 1325.76 302.432 1321.53 305.422C1317.3 308.237 1315.18 312.635 1315.18 318.616C1315.18 330.051 1322.23 335.768 1336.33 335.768Z" fill="#D631B9"/>
<path d="M1460.14 222.302V240.773H1460.93C1470.27 225.997 1483.66 218.608 1501.11 218.608C1515.02 218.608 1526.3 223.358 1534.93 232.857C1543.57 242.181 1547.89 254.319 1547.89 269.272V357.669H1511.94V274.549C1511.94 267.161 1509.83 261.18 1505.6 256.606C1501.55 252.032 1495.82 249.745 1488.42 249.745C1480.49 249.745 1473.88 252.648 1468.6 258.453C1463.49 264.258 1460.93 271.735 1460.93 280.882V357.669H1424.99V222.302H1460.14Z" fill="#D631B9"/>
<path d="M1633.74 361.627C1611.89 361.627 1594.71 354.943 1582.2 341.573C1569.69 328.028 1563.43 310.788 1563.43 289.854C1563.43 269.624 1569.69 252.736 1582.2 239.19C1594.71 225.469 1610.74 218.608 1630.3 218.608C1651.62 218.608 1668.09 225.997 1679.72 240.773C1691.35 255.55 1697.17 275.341 1697.17 300.145H1598.85C1600.26 310.876 1603.87 319.232 1609.68 325.213C1615.5 331.018 1623.43 333.921 1633.47 333.921C1646.69 333.921 1655.41 328.379 1659.64 317.297H1695.05C1692.41 329.963 1685.71 340.518 1674.97 348.961C1664.22 357.405 1650.47 361.627 1633.74 361.627ZM1630.83 246.315C1613.38 246.315 1602.9 255.99 1599.38 275.341H1659.64C1659.11 266.721 1656.2 259.772 1650.91 254.495C1645.63 249.042 1638.93 246.315 1630.83 246.315Z" fill="#D631B9"/>
<path d="M561.834 357.669V169H600.157V242.884H674.423V169H712.746V357.669H674.423V274.549H600.157V357.669H561.834Z" fill="white"/>
<path d="M741.73 402V373.766H754.416C767.807 373.766 774.502 367.609 774.502 355.294C774.502 349.313 771.066 337.087 764.195 318.616L727.722 222.302H765.516L785.602 283.257L794.324 312.811H794.853C797.319 301.376 799.962 291.525 802.781 283.257L821.811 222.302H858.019L810.71 361.1C805.424 376.58 799.434 387.223 792.738 393.028C786.219 399.009 776.264 402 762.873 402H741.73Z" fill="white"/>
<path d="M870.195 402V222.302H904.818V239.19H905.61C915.654 225.469 928.956 218.608 945.519 218.608C963.315 218.608 977.586 225.205 988.334 238.399C999.082 251.592 1004.46 268.832 1004.46 290.118C1004.46 311.931 999.082 329.347 988.334 342.365C977.586 355.206 963.403 361.627 945.783 361.627C928.163 361.627 915.125 355.206 906.668 342.365H906.139V402H870.195ZM938.119 331.81C947.281 331.81 954.505 328.203 959.791 320.991C965.253 313.778 967.984 303.839 967.984 291.173C967.984 277.628 965.429 266.985 960.319 259.245C955.21 251.504 947.369 247.634 936.797 247.634C926.049 247.634 918.12 251.68 913.011 259.772C907.901 267.689 905.346 278.156 905.346 291.173C905.346 303.663 908.165 313.602 913.804 320.991C919.442 328.203 927.547 331.81 938.119 331.81Z" fill="white"/>
<path d="M1084.88 361.627C1063.03 361.627 1045.85 354.943 1033.34 341.573C1020.83 328.028 1014.58 310.788 1014.58 289.854C1014.58 269.624 1020.83 252.736 1033.34 239.19C1045.85 225.469 1061.88 218.608 1081.44 218.608C1102.76 218.608 1119.24 225.997 1130.87 240.773C1142.49 255.55 1148.31 275.341 1148.31 300.145H1049.99C1051.4 310.876 1055.01 319.232 1060.83 325.213C1066.64 331.018 1074.57 333.921 1084.61 333.921C1097.83 333.921 1106.55 328.379 1110.78 317.297H1146.19C1143.55 329.963 1136.86 340.518 1126.11 348.961C1115.36 357.405 1101.62 361.627 1084.88 361.627ZM1081.97 246.315C1064.53 246.315 1054.04 255.99 1050.52 275.341H1110.78C1110.25 266.721 1107.34 259.772 1102.06 254.495C1096.77 249.042 1090.08 246.315 1081.97 246.315Z" fill="white"/>
<path d="M1199.57 222.302V243.94H1200.36C1204.59 236.024 1209.26 230.219 1214.37 226.524C1219.48 222.654 1225.91 220.719 1233.66 220.719C1237.36 220.719 1240.18 221.071 1242.12 221.775V253.176H1241.33C1229.17 251.944 1219.39 254.583 1211.99 261.092C1204.59 267.601 1200.89 277.804 1200.89 291.701V357.669H1164.94V222.302H1199.57Z" fill="white"/>
<path d="M1258.13 357.669V169H1294.07V357.669H1258.13Z" fill="white"/>
<path d="M1403.11 357.669C1401.34 355.382 1399.93 350.369 1398.88 342.629H1398.35C1394.47 348.434 1389.54 352.92 1383.55 356.086C1377.56 359.253 1369.19 360.836 1358.44 360.836C1344.17 360.836 1332.72 357.23 1324.08 350.017C1315.45 342.804 1311.13 332.601 1311.13 319.408C1311.13 305.686 1315.89 295.659 1325.4 289.326C1334.92 282.817 1348.31 278.331 1365.58 275.869C1378.26 274.109 1386.9 272.35 1391.48 270.591C1396.06 268.656 1398.35 265.314 1398.35 260.564C1398.35 255.638 1396.41 251.768 1392.53 248.954C1388.66 245.963 1383.02 244.468 1375.62 244.468C1359.23 244.468 1350.51 250.801 1349.45 263.467H1317.48C1318 250.625 1323.2 239.982 1333.07 231.538C1342.94 223.094 1357.21 218.872 1375.88 218.872C1413.94 218.872 1432.97 235.496 1432.97 268.744V337.615C1432.97 347.818 1434.56 354.063 1437.73 356.35V357.669H1403.11ZM1367.16 335.768C1377.03 335.768 1384.78 333.217 1390.42 328.116C1396.23 323.014 1399.14 316.945 1399.14 309.908V289.59C1395.27 291.877 1386.9 294.516 1374.03 297.506C1363.81 299.793 1356.59 302.432 1352.36 305.422C1348.13 308.237 1346.02 312.635 1346.02 318.616C1346.02 330.051 1353.07 335.768 1367.16 335.768Z" fill="white"/>
<path d="M1490.97 222.302V240.773H1491.77C1501.11 225.997 1514.5 218.608 1531.94 218.608C1545.86 218.608 1557.14 223.358 1565.77 232.857C1574.4 242.181 1578.72 254.319 1578.72 269.272V357.669H1542.78V274.549C1542.78 267.161 1540.66 261.18 1536.43 256.606C1532.38 252.032 1526.65 249.745 1519.25 249.745C1511.32 249.745 1504.72 252.648 1499.43 258.453C1494.32 264.258 1491.77 271.735 1491.77 280.882V357.669H1455.82V222.302H1490.97Z" fill="white"/>
<path d="M1664.57 361.627C1642.72 361.627 1625.54 354.943 1613.03 341.573C1600.52 328.028 1594.27 310.788 1594.27 289.854C1594.27 269.624 1600.52 252.736 1613.03 239.19C1625.54 225.469 1641.58 218.608 1661.13 218.608C1682.45 218.608 1698.93 225.997 1710.56 240.773C1722.19 255.55 1728 275.341 1728 300.145H1629.68C1631.09 310.876 1634.7 319.232 1640.52 325.213C1646.33 331.018 1654.26 333.921 1664.31 333.921C1677.52 333.921 1686.24 328.379 1690.47 317.297H1725.89C1723.24 329.963 1716.55 340.518 1705.8 348.961C1695.05 357.405 1681.31 361.627 1664.57 361.627ZM1661.66 246.315C1644.22 246.315 1633.74 255.99 1630.21 275.341H1690.47C1689.94 266.721 1687.03 259.772 1681.75 254.495C1676.46 249.042 1669.77 246.315 1661.66 246.315Z" fill="white"/>
</svg>
